:SAMPLES-PER-SECOND 30
:FULLY-SPECIFIED
:DEGREES
1
root  -67.5272 41.6461 -1.34097 18.0501 86.8307 16.1816
RightUpLeg  -1.58558 -8.6857 -5.8056
RightLeg  4.79572 -3.91742 3.82255
RightFoot  -2.48828 -0.00603085 -0.298083
RightToes  0.000482159 0.542163 -0.142577
Spine  5.53346 1.12078 -0.523307
Spine1  -5.41884 0.904307 1.77459
HEad  5.75575 1.95947 0.914194
LeftShoulder1  0.957267 -2.43398 -8.60488
LeftArm  -20.4767 9.94674 -10.3955
LeftForeArm  17.8327 -0.599698 -0.168293
LeftHand  -0.25398 0.0180481 5.50724
RightShoulder  0.591391 0.212982 8.46657
RightArm  -21.8907 -5.77739 4.70366
RightForeArm  1.2152 2.87695 2.24256
RightHand  -2.5246 7.93194 -22.1617
LeftUpLeg  -0.297614 4.50043 2.34966
LeftLeg  1.93311 12.2938 -3.61193
LeftFoot  -1.6908 0.007333 0.0900016
LeftToes  1.06246e-005 4.65855e-005 -8.18503e-006
2
root  -67.5222 41.6461 -1.34753 18.0348 86.8325 16.1489
RightUpLeg  -1.60243 -8.69876 -5.81878
RightLeg  4.81309 -3.91667 3.82853
RightFoot  -2.5051 -0.00607589 -0.297384
RightToes  0.000482159 0.542163 -0.142577
Spine  5.60763 1.14638 -0.514746
Spine1  -5.47706 0.928841 1.78896
HEad  6.06243 1.88897 0.97191
LeftShoulder1  0.964024 -2.46536 -8.6369
LeftArm  -20.4436 9.92902 -10.413
LeftForeArm  17.8899 -0.616341 -0.186206
LeftHand  -0.25398 0.0180481 5.50724
RightShoulder  0.569036 0.0933927 8.36089
RightArm  -21.8673 -5.7781 4.84938
RightForeArm  0.906167 2.93851 2.28238
RightHand  -2.49854 7.75823 -22.2174
LeftUpLeg  -0.316394 4.47744 2.32997
LeftLeg  1.94731 12.3314 -3.59077
LeftFoot  -1.7075 0.009601 0.0547555
LeftToes  1.06246e-005 4.65855e-005 -8.18503e-006
3
root  -67.5123 41.6461 -1.35854 18.0064 86.8416 16.0806
RightUpLeg  -1.63054 -8.72012 -5.83651
RightLeg  4.82767 -3.91314 3.8458
RightFoot  -2.53427 -0.00510618 -0.312444
RightToes  0.000482159 0.542163 -0.142577
Spine  5.68509 1.15349 -0.545778
Spine1  -5.54883 0.920252 1.89917
HEad  6.55553 1.77749 1.03416
LeftShoulder1  0.980754 -2.51824 -8.78966
LeftArm  -20.376 9.95977 -10.3538
LeftForeArm  17.9235 -0.626767 -0.208008
LeftHand  -0.25398 0.0180481 5.50724
RightShoulder  0.536631 -0.0647111 8.12171
RightArm  -22.0591 -5.70661 5.1843
RightForeArm  0.897702 2.92082 2.23354
RightHand  -2.47405 7.59834 -22.2654
LeftUpLeg  -0.358428 4.44302 2.3018
LeftLeg  1.96924 12.3667 -3.55947
LeftFoot  -1.73726 0.0101991 0.0454611
LeftToes  1.06246e-005 4.65855e-005 -8.18503e-006
4
root  -67.5011 41.646 -1.36498 17.8381 86.8498 15.8553
RightUpLeg  -1.6622 -8.7133 -5.83124
RightLeg  4.80527 -3.90341 3.85312
RightFoot  -2.55306 -0.00859308 -0.258293
RightToes  0.000482159 0.542163 -0.142577
Spine  5.65209 1.11121 -0.61544
Spine1  -5.47698 0.860516 1.99894
HEad  6.78456 1.72496 1.09282
LeftShoulder1  0.971789 -2.4411 -8.85453
LeftArm  -20.3756 10.001 -10.3606
LeftForeArm  17.9134 -0.625019 -0.202914
LeftHand  -0.25398 0.0180481 5.50724
RightShoulder  0.533959 -0.0771037 8.09599
RightArm  -22.3543 -5.56016 5.32952
RightForeArm  1.21433 2.75708 2.11121
RightHand  -2.46611 7.57917 -22.2282
LeftUpLeg  -0.411903 4.43061 2.29146
LeftLeg  1.98738 12.375 -3.54436
LeftFoot  -1.77552 0.00707971 0.0939379
LeftToes  1.06246e-005 4.65855e-005 -8.18503e-006
5
root  -67.4885 41.6458 -1.36674 17.5743 86.8297 15.5309
RightUpLeg  -1.6906 -8.68858 -5.81309
RightLeg  4.75775 -3.88707 3.84821
RightFoot  -2.55197 -0.0139393 -0.175271
RightToes  0.000482159 0.542163 -0.142577
Spine  5.4968 1.04411 -0.655112
Spine1  -5.17877 0.795999 1.94234
HEad  6.64121 1.76371 1.17727
LeftShoulder1  0.917637 -2.1631 -8.67617
LeftArm  -20.5051 9.93698 -10.5655
LeftForeArm  17.9009 -0.60862 -0.164139
LeftHand  -0.25398 0.0180481 5.50724
RightShoulder  0.559705 0.0183936 8.44163
RightArm  -22.4908 -5.37812 5.11619
RightForeArm  1.30514 2.5662 2.04312
RightHand  -2.46438 7.59457 -22.1884
LeftUpLeg  -0.449817 4.4434 2.29762
LeftLeg  1.98727 12.3774 -3.55555
LeftFoot  -1.82108 0.00514978 0.12393
LeftToes  1.06246e-005 4.65855e-005 -8.18503e-006
6
root  -67.4739 41.6457 -1.37077 17.4289 86.7938 15.3293
RightUpLeg  -1.71635 -8.68881 -5.81496
RightLeg  4.72382 -3.872 3.85588
RightFoot  -2.5495 -0.0136879 -0.179175
RightToes  0.000482159 0.542163 -0.142577
Spine  5.3237 0.989058 -0.625844
Spine1  -4.81656 0.760667 1.77659
HEad  6.45168 1.79917 1.22472
LeftShoulder1  0.856669 -1.85485 -8.44134
LeftArm  -20.6812 9.80353 -10.8025
LeftForeArm  17.924 -0.574467 -0.110807
LeftHand  -0.25398 0.0180481 5.50724
RightShoulder  0.579127 0.0686771 8.80647
RightArm  -22.4763 -5.22838 4.88094
RightForeArm  1.19055 2.45484 2.04334
RightHand  -2.48399 7.6569 -22.2557
LeftUpLeg  -0.467207 4.44485 2.29117
LeftLeg  1.96364 12.4037 -3.56806
LeftFoot  -1.85227 0.00701734 0.0949072
LeftToes  1.06246e-005 4.65855e-005 -8.18503e-006
7
root  -67.4611 41.6455 -1.37781 17.4577 86.7647 15.2933
RightUpLeg  -1.76359 -8.70998 -5.83528
RightLeg  4.71408 -3.83726 3.87623
RightFoot  -2.56104 -0.0129082 -0.191282
RightToes  0.000482159 0.542163 -0.142577
Spine  5.25221 0.973992 -0.586219
Spine1  -4.6661 0.758712 1.67818
HEad  6.50052 1.74464 1.12201
LeftShoulder1  0.83694 -1.74912 -8.37797
LeftArm  -20.8004 9.75966 -10.8615
LeftForeArm  18.0074 -0.520962 -0.0537498
LeftHand  -0.25398 0.0180481 5.50724
RightShoulder  0.578789 0.0472092 8.8411
RightArm  -22.5025 -5.20284 4.91635
RightForeArm  1.51339 2.40006 2.00657
RightHand  -2.55195 7.95941 -22.3477
LeftUpLeg  -0.500765 4.41654 2.26086
LeftLeg  1.93332 12.4587 -3.56016
LeftFoot  -1.85853 0.00831349 0.0747642
LeftToes  1.06246e-005 4.65855e-005 -8.18503e-006
8
root  -67.4542 41.6453 -1.38176 17.5241 86.7402 15.2743
RightUpLeg  -1.84684 -8.71046 -5.84226
RightLeg  4.70478 -3.78627 3.88245
RightFoot  -2.56603 -0.0200064 -0.0810608
RightToes  0.000482159 0.542163 -0.142577
Spine  5.28768 1.0072 -0.611776
Spine1  -4.76391 0.789781 1.69376
HEad  6.63243 1.68263 0.933053
LeftShoulder1  0.850149 -1.83102 -8.38373
LeftArm  -20.8818 9.8322 -10.8457
LeftForeArm  18.1208 -0.4529 0.00992214
LeftHand  -0.25398 0.0180481 5.50724
RightShoulder  0.583128 0.0489159 8.7233
RightArm  -22.6003 -5.32841 5.00747
RightForeArm  2.49792 2.3563 1.89699
RightHand  -2.64308 8.49985 -22.2581
LeftUpLeg  -0.568686 4.39296 2.23443
LeftLeg  1.90715 12.5121 -3.55527
LeftFoot  -1.86786 0.00750991 0.0872523
LeftToes  1.06246e-005 4.65855e-005 -8.18503e-006
9
root  -67.4493 41.6449 -1.38398 17.4075 86.7164 15.0763
RightUpLeg  -1.92472 -8.6938 -5.82798
RightLeg  4.68383 -3.77025 3.87872
RightFoot  -2.54719 -0.025169 -0.000900113
RightToes  0.000482159 0.542163 -0.142577
Spine  5.33903 1.05231 -0.6649
Spine1  -4.86057 0.832787 1.70678
HEad  6.60708 1.7033 0.854292
LeftShoulder1  0.849162 -1.86726 -8.24399
LeftArm  -20.9703 9.90215 -10.9741
LeftForeArm  18.1697 -0.41313 0.0593043
LeftHand  -0.25398 0.0180481 5.50724
RightShoulder  0.586649 0.0924871 8.75974
RightArm  -22.6244 -5.48788 4.89789
RightForeArm  3.46031 2.36054 1.81587
RightHand  -2.69199 8.9373 -21.9943
LeftUpLeg  -0.633687 4.40342 2.2377
LeftLeg  1.89195 12.5281 -3.5729
LeftFoot  -1.90631 0.00980406 0.0515998
LeftToes  1.06246e-005 4.65855e-005 -8.18503e-006
10
root  -67.4391 41.6444 -1.39399 16.8455 86.6962 14.4754
RightUpLeg  -1.93868 -8.70007 -5.81554
RightLeg  4.65738 -3.77609 3.90136
RightFoot  -2.53097 -0.01721 -0.124483
RightToes  0.000482159 0.542163 -0.142577
Spine  5.3678 1.05733 -0.631906
Spine1  -4.80066 0.847532 1.63518
HEad  6.45583 1.80072 0.931581
LeftShoulder1  0.820472 -1.74793 -8.03341
LeftArm  -21.0085 9.94207 -11.1751
LeftForeArm  18.1083 -0.475639 0.0550514
LeftHand  -0.25398 0.0180481 5.50724
RightShoulder  0.583071 0.0873763 8.83521
RightArm  -22.5052 -5.51923 4.78189
RightForeArm  3.55275 2.44269 1.86146
RightHand  -2.67834 8.97203 -21.8382
LeftUpLeg  -0.659928 4.42766 2.25951
LeftLeg  1.91615 12.5166 -3.58011
LeftFoot  -1.97252 0.0146638 -0.023923
LeftToes  1.06246e-005 4.65855e-005 -8.18503e-006
11
root  -67.4245 41.6422 -1.41423 15.743 86.6561 13.3696
RightUpLeg  -1.91427 -8.7297 -5.81746
RightLeg  4.64519 -3.69866 3.95306
RightFoot  -2.54858 -0.0105832 -0.227387
RightToes  0.000482159 0.542163 -0.142577
Spine  5.4559 1.04237 -0.483073
Spine1  -4.77132 0.853158 1.4999
HEad  6.35757 1.88051 1.00215
LeftShoulder1  0.802837 -1.65149 -7.97543
LeftArm  -20.935 10.0445 -11.1952
LeftForeArm  18.0103 -0.631779 0.0024109
LeftHand  -0.25398 0.0180481 5.50724
RightShoulder  0.568767 0.0113345 8.76578
RightArm  -22.329 -5.43422 4.84361
RightForeArm  2.7367 2.54349 1.99904
RightHand  -2.63113 8.65083 -21.9358
LeftUpLeg  -0.680432 4.44879 2.2812
LeftLeg  2.03574 12.5323 -3.54825
LeftFoot  -2.13117 0.0157218 -0.0334671
LeftToes  1.06246e-005 4.65855e-005 -8.18503e-006
12
root  -67.4132 41.6334 -1.43941 14.3718 86.5651 11.9839
RightUpLeg  -1.95516 -8.76325 -5.82636
RightLeg  4.70904 -3.51669 4.0036
RightFoot  -2.59617 -0.0193942 -0.0905665
RightToes  0.000482159 0.542163 -0.142577
Spine  5.67707 1.08476 -0.279366
Spine1  -4.99828 0.929827 1.29918
HEad  6.35053 1.87221 0.981649
LeftShoulder1  0.827158 -1.79081 -8.03435
LeftArm  -20.8402 10.2163 -11.0297
LeftForeArm  17.9748 -0.742235 -0.0294504
LeftHand  -0.25398 0.0180481 5.50724
RightShoulder  0.564673 -0.0203031 8.79788
RightArm  -22.2321 -5.43327 4.78826
RightForeArm  1.83796 2.60287 2.09313
RightHand  -2.56616 8.22232 -22.0548
LeftUpLeg  -0.782182 4.48401 2.30848
LeftLeg  2.34619 12.6129 -3.48627
LeftFoot  -2.566 0.0212649 -0.0801154
LeftToes  1.06246e-005 4.65855e-005 -8.18503e-006
13
root  -67.4066 41.6155 -1.47408 12.9061 86.4429 10.4892
RightUpLeg  -2.08713 -8.83451 -5.8487
RightLeg  4.91191 -3.31629 4.06538
RightFoot  -2.67741 -0.0262015 0.015131
RightToes  0.000482159 0.542163 -0.142577
Spine  5.94959 1.17937 -0.015052
Spine1  -5.29616 1.07995 0.984399
HEad  6.49701 1.48636 0.943575
LeftShoulder1  0.867958 -2.05969 -8.01719
LeftArm  -20.9461 10.3432 -10.9462
LeftForeArm  18.052 -0.756591 0.0363279
LeftHand  -0.25398 0.0180481 5.50724
RightShoulder  0.587783 0.0542991 9.14371
RightArm  -22.3817 -5.598 4.46632
RightForeArm  1.57232 2.65798 2.03979
RightHand  -2.50807 7.92391 -22.0359
LeftUpLeg  -1.03595 4.51655 2.33728
LeftLeg  3.00272 12.7579 -3.34109
LeftFoot  -3.40837 0.050796 -0.446904
LeftToes  1.06246e-005 4.65855e-005 -8.18503e-006
